<mxfile host="app.diagrams.net" modified="2023-12-19T04:25:07.307Z" agent="Mozilla/5.0 (Macintosh; Intel Mac OS X 10_15_7) AppleWebKit/537.36 (KHTML, like Gecko) Chrome/120.0.0.0 Safari/537.36" version="22.1.11" etag="xv5KD4O-jEkLHRNBWlnf" type="github">
  <diagram name="Page-1" id="wbrFDPMByASZ2oWiJl_c">
    <mxGraphModel>
      <root>
        <mxCell id="0" />
        <mxCell id="1" parent="0" />
      </root>
    </mxGraphModel>
  </diagram>
</mxfile>
